<?xml version="1.0" encoding="UTF-8" standalone="no"?>
<svg
   id="Laag_1"
   viewBox="0 0 75.540001 75.54"
   version="1.1"
   sodipodi:docname="logo pure square.svg"
   inkscape:version="1.4.2 (f4327f4, 2025-05-13)"
   width="75.540001"
   height="75.540001"
   xmlns:inkscape="http://www.inkscape.org/namespaces/inkscape"
   xmlns:sodipodi="http://sodipodi.sourceforge.net/DTD/sodipodi-0.dtd"
   xmlns="http://www.w3.org/2000/svg"
   xmlns:svg="http://www.w3.org/2000/svg">
  <sodipodi:namedview
     id="namedview19"
     pagecolor="#ffffff"
     bordercolor="#000000"
     borderopacity="0.25"
     inkscape:showpageshadow="2"
     inkscape:pageopacity="0.0"
     inkscape:pagecheckerboard="0"
     inkscape:deskcolor="#d1d1d1"
     inkscape:zoom="9.6645684"
     inkscape:cx="54.373871"
     inkscape:cy="54.270401"
     inkscape:window-width="2560"
     inkscape:window-height="1494"
     inkscape:window-x="-11"
     inkscape:window-y="-11"
     inkscape:window-maximized="1"
     inkscape:current-layer="Laag_1">
    <inkscape:page
       x="0"
       y="0"
       width="75.540001"
       height="75.540001"
       id="page1"
       margin="0"
       bleed="0" />
  </sodipodi:namedview>
  <defs
     id="defs1">
    <style
       id="style1">.cls-1{fill:#3bd7aa;}.cls-2,.cls-3{fill:#1d346f;}.cls-4{fill:#479d7c;font-family:Calibri, Calibri;font-size:15px;}.cls-5{letter-spacing:0em;}.cls-3{font-family:Megabyte-Medium, Megabyte;font-size:26.07px;font-weight:500;}.cls-6{letter-spacing:-.02em;}.cls-7{letter-spacing:-.02em;}.cls-8{letter-spacing:-.05em;}.cls-9{fill:#c7cbd5;}.cls-10{letter-spacing:0em;}.cls-11{letter-spacing:0em;}.cls-12{letter-spacing:0em;}.cls-13{letter-spacing:0em;}.cls-14{letter-spacing:0em;}.cls-15{letter-spacing:0em;}.cls-16{letter-spacing:0em;}.cls-17{letter-spacing:0em;}.cls-18{letter-spacing:0em;}</style>
  </defs>
  <path
     class="cls-9"
     d="m 50.370001,37.976941 c 0,6.95 -5.63,12.59 -12.59,12.59 -3.48,0 -6.62,1.41 -8.9,3.69 -2.28,2.28 -3.69,5.42 -3.69,8.9 0,3.48 -1.41,6.62 -3.69,8.9 -2.28,2.28 -5.42,3.69 -8.9,3.69 -3.4800005,0 -6.6200006,-1.41 -8.9000006,-3.69 -2.28,-2.28 -3.68999999,-5.42 -3.68999999,-8.9 0,-3.48 -1.41000001,-6.62 -3.69000001,-8.9 -2.28,-2.28 -5.42,-3.69 -8.9000004,-3.69 -3.479999,0 -6.619999,-1.41 -8.899999,-3.69 -2.28,-2.28 -3.69,-5.42 -3.69,-8.9 0,-3.48 1.41,-6.62 3.69,-8.9 2.28,-2.28 5.42,-3.69 8.899999,-3.69 3.4800004,0 6.6200004,1.41 8.9000004,3.69 2.28,2.27 3.69000001,5.42 3.69000001,8.9 0,3.48 1.40999999,6.62 3.68999999,8.9 2.28,2.27 5.4200001,3.69 8.9000006,3.69 3.48,0 6.62,-1.41 8.9,-3.69 2.28,-2.28 3.69,-5.42 3.69,-8.9 0,-3.48 1.41,-6.62 3.69,-8.9 2.28,-2.28 5.42,-3.69 8.9,-3.69 3.48,0 6.62,1.41 8.9,3.69 2.28,2.27 3.69,5.42 3.69,8.9"
     id="path1" />
  <path
     class="cls-2"
     d="m 75.540001,37.976941 c 0,6.95 -5.63,12.59 -12.59,12.59 -3.48,0 -6.62,-1.41 -8.9,-3.69 -2.28,-2.28 -3.69,-5.42 -3.69,-8.9 0,-6.95 -5.63,-12.59 -12.59,-12.59 -3.48,0 -6.62,1.41 -8.9,3.69 -2.28,2.28 -3.69,5.42 -3.69,8.9 0,6.95 -5.63,12.59 -12.59,12.59 -3.4800005,0 -6.6200006,-1.41 -8.9000006,-3.69 -2.28,-2.28 -3.68999999223632,-5.42 -3.68999999223632,-8.9 0,-3.48 1.40999999223632,-6.62 3.68999999223632,-8.9 2.28,-2.28 5.4300001,-3.69 8.9000006,-3.69 3.47,0 6.62,-1.41 8.9,-3.69 2.28,-2.28 3.69,-5.42 3.69,-8.9 0,-3.4799995 1.41,-6.6199995 3.69,-8.8999995 2.28,-2.28 5.42,-3.69000003 8.9,-3.69000003 3.48,0 6.62,1.41000003 8.9,3.69000003 2.28,2.28 3.69,5.43 3.69,8.8999995 0,3.47 1.41,6.62 3.69,8.9 2.28,2.28 5.42,3.69 8.9,3.69 3.48,0 6.62,1.41 8.9,3.69 2.28,2.27 3.69,5.42 3.69,8.9"
     id="path2" />
  <path
     class="cls-9"
     d="m 12.610001,0.21694147 c 3.47,0 6.62,1.41000003 8.9,3.69000003 2.27,2.28 3.69,5.42 3.69,8.8999995 0,3.48 -1.41,6.62 -3.69,8.9 -2.28,2.28 -5.42,3.69 -8.9,3.69 -6.9500006,0 -12.59000059,5.63 -12.59000059,12.59 0,3.48 -1.41000001,6.62 -3.69000001,8.9 -2.28,2.28 -5.42,3.69 -8.9000004,3.69 -3.479999,0 -6.619999,-1.41 -8.899999,-3.69 -2.28,-2.28 -3.69,-5.42 -3.69,-8.9 0,-6.95 5.63,-12.59 12.589999,-12.59 3.4800004,0 6.6200004,-1.41 8.9000004,-3.69 2.28,-2.28 3.69000001,-5.42 3.69000001,-8.9 0,-6.9599995 5.62999999,-12.58999953 12.59000059,-12.58999953"
     id="path3" />
  <path
     class="cls-1"
     d="m 88.130001,0.21694147 c 3.48,0 6.62,1.41000003 8.9,3.69000003 2.270001,2.28 3.689999,5.42 3.689999,8.8999995 0,3.48 -1.409998,6.62 -3.689999,8.9 -2.28,2.28 -5.42,3.69 -8.9,3.69 -6.95,0 -12.59,5.63 -12.59,12.59 0,3.48 -1.41,6.62 -3.69,8.9 -2.28,2.28 -5.42,3.69 -8.9,3.69 -3.48,0 -6.62,-1.41 -8.9,-3.69 -2.28,-2.28 -3.69,-5.42 -3.69,-8.9 0,-6.95 5.63,-12.59 12.59,-12.59 3.48,0 6.62,-1.41 8.9,-3.69 2.28,-2.28 3.69,-5.42 3.69,-8.9 0,-6.9599995 5.63,-12.58999953 12.59,-12.58999953"
     id="path4" />
</svg>
