<?xml version="1.0" encoding="UTF-8" standalone="no"?>
<svg
   id="Laag_1"
   viewBox="0 0 125.89 75.54"
   version="1.1"
   sodipodi:docname="logo pure.svg"
   inkscape:version="1.4.2 (f4327f4, 2025-05-13)"
   width="125.89"
   height="75.540001"
   xmlns:inkscape="http://www.inkscape.org/namespaces/inkscape"
   xmlns:sodipodi="http://sodipodi.sourceforge.net/DTD/sodipodi-0.dtd"
   xmlns="http://www.w3.org/2000/svg"
   xmlns:svg="http://www.w3.org/2000/svg">
  <sodipodi:namedview
     id="namedview19"
     pagecolor="#ffffff"
     bordercolor="#000000"
     borderopacity="0.25"
     inkscape:showpageshadow="2"
     inkscape:pageopacity="0.0"
     inkscape:pagecheckerboard="0"
     inkscape:deskcolor="#d1d1d1"
     inkscape:zoom="9.6645684"
     inkscape:cx="63.013678"
     inkscape:cy="54.270401"
     inkscape:window-width="2560"
     inkscape:window-height="1494"
     inkscape:window-x="-11"
     inkscape:window-y="-11"
     inkscape:window-maximized="1"
     inkscape:current-layer="Laag_1" />
  <defs
     id="defs1">
    <style
       id="style1">.cls-1{fill:#3bd7aa;}.cls-2,.cls-3{fill:#1d346f;}.cls-4{fill:#479d7c;font-family:Calibri, Calibri;font-size:15px;}.cls-5{letter-spacing:0em;}.cls-3{font-family:Megabyte-Medium, Megabyte;font-size:26.07px;font-weight:500;}.cls-6{letter-spacing:-.02em;}.cls-7{letter-spacing:-.02em;}.cls-8{letter-spacing:-.05em;}.cls-9{fill:#c7cbd5;}.cls-10{letter-spacing:0em;}.cls-11{letter-spacing:0em;}.cls-12{letter-spacing:0em;}.cls-13{letter-spacing:0em;}.cls-14{letter-spacing:0em;}.cls-15{letter-spacing:0em;}.cls-16{letter-spacing:0em;}.cls-17{letter-spacing:0em;}.cls-18{letter-spacing:0em;}</style>
  </defs>
  <path
     class="cls-9"
     d="m 75.54,37.77 c 0,6.95 -5.63,12.59 -12.59,12.59 -3.48,0 -6.62,1.41 -8.9,3.69 -2.28,2.28 -3.69,5.42 -3.69,8.9 0,3.48 -1.41,6.62 -3.69,8.9 -2.28,2.28 -5.42,3.69 -8.9,3.69 -3.48,0 -6.62,-1.41 -8.9,-3.69 -2.28,-2.28 -3.69,-5.42 -3.69,-8.9 0,-3.48 -1.41,-6.62 -3.69,-8.9 -2.28,-2.28 -5.42,-3.69 -8.9,-3.69 -3.48,0 -6.62,-1.41 -8.9,-3.69 C 1.41,44.39 0,41.25 0,37.77 c 0,-3.48 1.41,-6.62 3.69,-8.9 2.28,-2.28 5.42,-3.69 8.9,-3.69 3.48,0 6.62,1.41 8.9,3.69 2.28,2.27 3.69,5.42 3.69,8.9 0,3.48 1.41,6.62 3.69,8.9 2.28,2.27 5.42,3.69 8.9,3.69 3.48,0 6.62,-1.41 8.9,-3.69 2.28,-2.28 3.69,-5.42 3.69,-8.9 0,-3.48 1.41,-6.62 3.69,-8.9 2.28,-2.28 5.42,-3.69 8.9,-3.69 3.48,0 6.62,1.41 8.9,3.69 2.28,2.27 3.69,5.42 3.69,8.9"
     id="path1" />
  <path
     class="cls-2"
     d="m 100.71,37.77 c 0,6.95 -5.63,12.59 -12.59,12.59 -3.48,0 -6.62,-1.41 -8.9,-3.69 -2.28,-2.28 -3.69,-5.42 -3.69,-8.9 0,-6.95 -5.63,-12.59 -12.59,-12.59 -3.48,0 -6.62,1.41 -8.9,3.69 -2.28,2.28 -3.69,5.42 -3.69,8.9 0,6.95 -5.63,12.59 -12.59,12.59 -3.48,0 -6.62,-1.41 -8.9,-3.69 -2.28,-2.28 -3.69,-5.42 -3.69,-8.9 0,-3.48 1.41,-6.62 3.69,-8.9 2.28,-2.28 5.43,-3.69 8.9,-3.69 3.47,0 6.62,-1.41 8.9,-3.69 2.28,-2.28 3.69,-5.42 3.69,-8.9 0,-3.48 1.41,-6.62 3.69,-8.9 C 56.32,1.41 59.46,0 62.94,0 c 3.48,0 6.62,1.41 8.9,3.69 2.28,2.28 3.69,5.43 3.69,8.9 0,3.47 1.41,6.62 3.69,8.9 2.28,2.28 5.42,3.69 8.9,3.69 3.48,0 6.62,1.41 8.9,3.69 2.28,2.27 3.69,5.42 3.69,8.9"
     id="path2" />
  <path
     class="cls-9"
     d="m 37.78,0.01 c 3.47,0 6.62,1.41 8.9,3.69 2.27,2.28 3.69,5.42 3.69,8.9 0,3.48 -1.41,6.62 -3.69,8.9 -2.28,2.28 -5.42,3.69 -8.9,3.69 -6.95,0 -12.59,5.63 -12.59,12.59 0,3.48 -1.41,6.62 -3.69,8.9 -2.28,2.28 -5.42,3.69 -8.9,3.69 -3.48,0 -6.62,-1.41 -8.9,-3.69 -2.28,-2.28 -3.69,-5.42 -3.69,-8.9 0,-6.95 5.63,-12.59 12.59,-12.59 3.48,0 6.62,-1.41 8.9,-3.69 2.28,-2.28 3.69,-5.42 3.69,-8.9 0,-6.96 5.63,-12.59 12.59,-12.59"
     id="path3" />
  <path
     class="cls-1"
     d="m 113.3,0.01 c 3.48,0 6.62,1.41 8.9,3.69 2.27,2.28 3.69,5.42 3.69,8.9 0,3.48 -1.41,6.62 -3.69,8.9 -2.28,2.28 -5.42,3.69 -8.9,3.69 -6.95,0 -12.59,5.63 -12.59,12.59 0,3.48 -1.41,6.62 -3.69,8.9 -2.28,2.28 -5.42,3.69 -8.9,3.69 -3.48,0 -6.62,-1.41 -8.9,-3.69 -2.28,-2.28 -3.69,-5.42 -3.69,-8.9 0,-6.95 5.63,-12.59 12.59,-12.59 3.48,0 6.62,-1.41 8.9,-3.69 2.28,-2.28 3.69,-5.42 3.69,-8.9 0,-6.96 5.63,-12.59 12.59,-12.59"
     id="path4" />
</svg>
