<?xml version="1.0" encoding="UTF-8" standalone="no"?>
<svg
   id="Laag_1"
   viewBox="0 0 283.63 75.52"
   version="1.1"
   sodipodi:docname="logo wide Ariane Mader7 green2.svg"
   inkscape:version="1.4.2 (f4327f4, 2025-05-13)"
   xmlns:inkscape="http://www.inkscape.org/namespaces/inkscape"
   xmlns:sodipodi="http://sodipodi.sourceforge.net/DTD/sodipodi-0.dtd"
   xmlns="http://www.w3.org/2000/svg"
   xmlns:svg="http://www.w3.org/2000/svg">
  <sodipodi:namedview
     id="namedview19"
     pagecolor="#ffffff"
     bordercolor="#000000"
     borderopacity="0.25"
     inkscape:showpageshadow="2"
     inkscape:pageopacity="0.0"
     inkscape:pagecheckerboard="0"
     inkscape:deskcolor="#d1d1d1"
     inkscape:zoom="8.2854422"
     inkscape:cx="141.87535"
     inkscape:cy="37.716756"
     inkscape:window-width="2560"
     inkscape:window-height="1494"
     inkscape:window-x="-11"
     inkscape:window-y="-11"
     inkscape:window-maximized="1"
     inkscape:current-layer="Laag_1" />
  <defs
     id="defs1">
    <style
       id="style1">.cls-1{fill:#3bd7aa;}.cls-2,.cls-3{fill:#1d346f;}.cls-4{fill:#479d7c;font-family:Calibri, Calibri;font-size:15px;}.cls-5{letter-spacing:0em;}.cls-3{font-family:Megabyte-Medium, Megabyte;font-size:26.07px;font-weight:500;}.cls-6{letter-spacing:-.02em;}.cls-7{letter-spacing:-.02em;}.cls-8{letter-spacing:-.05em;}.cls-9{fill:#c7cbd5;}.cls-10{letter-spacing:0em;}.cls-11{letter-spacing:0em;}.cls-12{letter-spacing:0em;}.cls-13{letter-spacing:0em;}.cls-14{letter-spacing:0em;}.cls-15{letter-spacing:0em;}.cls-16{letter-spacing:0em;}.cls-17{letter-spacing:0em;}.cls-18{letter-spacing:0em;}</style>
  </defs>
  <path
     class="cls-9"
     d="M75.52,37.76c0,6.95-5.63,12.59-12.59,12.59-3.48,0-6.62,1.41-8.9,3.69s-3.69,5.42-3.69,8.9-1.41,6.62-3.69,8.9c-2.28,2.28-5.42,3.69-8.9,3.69s-6.62-1.41-8.9-3.69c-2.28-2.28-3.69-5.42-3.69-8.9s-1.41-6.62-3.69-8.9-5.42-3.69-8.9-3.69-6.62-1.41-8.9-3.69c-2.28-2.28-3.69-5.43-3.69-8.9s1.41-6.62,3.69-8.9c2.28-2.28,5.43-3.69,8.9-3.69s6.62,1.41,8.9,3.69c2.28,2.27,3.69,5.42,3.69,8.9s1.41,6.62,3.69,8.9c2.28,2.27,5.42,3.69,8.9,3.69s6.62-1.41,8.9-3.69c2.28-2.28,3.69-5.43,3.69-8.9s1.41-6.62,3.69-8.9c2.28-2.28,5.42-3.69,8.9-3.69s6.62,1.41,8.9,3.69c2.28,2.27,3.69,5.42,3.69,8.9"
     id="path1" />
  <path
     class="cls-2"
     d="M100.69,37.76c0,6.95-5.63,12.59-12.59,12.59-3.48,0-6.62-1.41-8.9-3.69-2.28-2.28-3.69-5.43-3.69-8.9,0-6.95-5.63-12.59-12.59-12.59-3.48,0-6.62,1.41-8.9,3.69-2.28,2.28-3.69,5.42-3.69,8.9,0,6.95-5.63,12.59-12.59,12.59-3.48,0-6.62-1.41-8.9-3.69-2.28-2.28-3.69-5.43-3.69-8.9s1.41-6.62,3.69-8.9c2.28-2.28,5.43-3.69,8.9-3.69s6.62-1.41,8.9-3.69,3.69-5.42,3.69-8.9,1.41-6.62,3.69-8.9c2.28-2.28,5.42-3.69,8.9-3.69s6.62,1.41,8.9,3.69c2.28,2.28,3.69,5.43,3.69,8.9s1.41,6.62,3.69,8.9,5.42,3.69,8.9,3.69,6.62,1.41,8.9,3.69c2.28,2.27,3.69,5.42,3.69,8.9"
     id="path2" />
  <path
     class="cls-9"
     d="M37.76,0C41.24,0,44.39,1.41,46.66,3.69c2.27,2.28,3.69,5.42,3.69,8.9s-1.41,6.62-3.69,8.9c-2.28,2.28-5.42,3.69-8.9,3.69-6.95,0-12.59,5.63-12.59,12.59,0,3.48-1.41,6.62-3.69,8.9s-5.42,3.69-8.9,3.69-6.62-1.41-8.9-3.69S0,41.24,0,37.76C0,30.81,5.63,25.17,12.59,25.17c3.48,0,6.62-1.41,8.9-3.69s3.69-5.42,3.69-8.9C25.17,5.63,30.81,0,37.76,0"
     id="path3" />
  <path
     class="cls-1"
     d="M113.28,0C116.76,0,119.9,1.41,122.18,3.69c2.27,2.28,3.69,5.42,3.69,8.9s-1.41,6.62-3.69,8.9c-2.28,2.28-5.42,3.69-8.9,3.69-6.95,0-12.59,5.63-12.59,12.59,0,3.48-1.41,6.62-3.69,8.9s-5.42,3.69-8.9,3.69-6.62-1.41-8.9-3.69-3.69-5.42-3.69-8.9c0-6.95,5.63-12.59,12.59-12.59,3.48,0,6.62-1.41,8.9-3.69s3.69-5.42,3.69-8.9C100.69,5.63,106.33,0,113.28,0"
     id="path4" />
  <text
     class="cls-3"
     transform="translate(114.47 48.91)"
     id="text15"><tspan
       class="cls-15"
       x="0"
       y="0"
       id="tspan4">A</tspan><tspan
       class="cls-6"
       x="18.53"
       y="0"
       id="tspan5">r</tspan><tspan
       class="cls-7"
       x="28.44"
       y="0"
       id="tspan6">i</tspan><tspan
       class="cls-17"
       x="35.56"
       y="0"
       id="tspan7">a</tspan><tspan
       class="cls-13"
       x="50.52"
       y="0"
       id="tspan8">n</tspan><tspan
       x="66.53"
       y="0"
       id="tspan9">e</tspan><tspan
       class="cls-8"
       x="82.4"
       y="0"
       id="tspan10" /><tspan
       class="cls-18"
       x="88.27"
       y="0"
       id="tspan11">M</tspan><tspan
       class="cls-14"
       x="110.5"
       y="0"
       id="tspan12">a</tspan><tspan
       class="cls-12"
       x="125.55"
       y="0"
       id="tspan13">d</tspan><tspan
       class="cls-11"
       x="142.91"
       y="0"
       id="tspan14">e</tspan><tspan
       x="158.63"
       y="0"
       id="tspan15">r</tspan></text>
  <text
     class="cls-4"
     transform="translate(129.28 65.91)"
     id="text19"
     style="fill:#30b28e;fill-opacity:1"><tspan
       class="cls-16"
       x="0"
       y="0"
       id="tspan16"
       style="fill:#30b28e;fill-opacity:1">c</tspan><tspan
       class="cls-5"
       x="6.22"
       y="0"
       id="tspan17"
       style="fill:#30b28e;fill-opacity:1">oaching &amp; </tspan><tspan
       class="cls-10"
       x="70.94"
       y="0"
       id="tspan18"
       style="fill:#30b28e;fill-opacity:1">c</tspan><tspan
       x="77.19"
       y="0"
       id="tspan19"
       style="fill:#30b28e;fill-opacity:1">ounselling</tspan></text>
</svg>
