<?xml version="1.0" encoding="UTF-8" standalone="no"?>
<svg
   id="Laag_1"
   viewBox="0 0 283.63 75.52"
   version="1.1"
   sodipodi:docname="logo wide Ariane Mader7 green2.svg"
   inkscape:version="1.4.2 (f4327f4, 2025-05-13)"
   inkscape:export-filename="logo wide Ariane Mader7 green2.png"
   inkscape:export-xdpi="96"
   inkscape:export-ydpi="96"
   xmlns:inkscape="http://www.inkscape.org/namespaces/inkscape"
   xmlns:sodipodi="http://sodipodi.sourceforge.net/DTD/sodipodi-0.dtd"
   xmlns="http://www.w3.org/2000/svg"
   xmlns:svg="http://www.w3.org/2000/svg">
  <sodipodi:namedview
     id="namedview19"
     pagecolor="#ffffff"
     bordercolor="#000000"
     borderopacity="0.25"
     inkscape:showpageshadow="2"
     inkscape:pageopacity="0.0"
     inkscape:pagecheckerboard="0"
     inkscape:deskcolor="#d1d1d1"
     inkscape:zoom="8.2854422"
     inkscape:cx="141.87535"
     inkscape:cy="37.837449"
     inkscape:window-width="2560"
     inkscape:window-height="1494"
     inkscape:window-x="-11"
     inkscape:window-y="-11"
     inkscape:window-maximized="1"
     inkscape:current-layer="Laag_1" />
  <defs
     id="defs1">
    <style
       id="style1">.cls-1{fill:#3bd7aa;}.cls-2,.cls-3{fill:#1d346f;}.cls-4{fill:#479d7c;font-family:Calibri, Calibri;font-size:15px;}.cls-5{letter-spacing:0em;}.cls-3{font-family:Megabyte-Medium, Megabyte;font-size:26.07px;font-weight:500;}.cls-6{letter-spacing:-.02em;}.cls-7{letter-spacing:-.02em;}.cls-8{letter-spacing:-.05em;}.cls-9{fill:#c7cbd5;}.cls-10{letter-spacing:0em;}.cls-11{letter-spacing:0em;}.cls-12{letter-spacing:0em;}.cls-13{letter-spacing:0em;}.cls-14{letter-spacing:0em;}.cls-15{letter-spacing:0em;}.cls-16{letter-spacing:0em;}.cls-17{letter-spacing:0em;}.cls-18{letter-spacing:0em;}</style>
  </defs>
  <path
     class="cls-9"
     d="M75.52,37.76c0,6.95-5.63,12.59-12.59,12.59-3.48,0-6.62,1.41-8.9,3.69s-3.69,5.42-3.69,8.9-1.41,6.62-3.69,8.9c-2.28,2.28-5.42,3.69-8.9,3.69s-6.62-1.41-8.9-3.69c-2.28-2.28-3.69-5.42-3.69-8.9s-1.41-6.62-3.69-8.9-5.42-3.69-8.9-3.69-6.62-1.41-8.9-3.69c-2.28-2.28-3.69-5.43-3.69-8.9s1.41-6.62,3.69-8.9c2.28-2.28,5.43-3.69,8.9-3.69s6.62,1.41,8.9,3.69c2.28,2.27,3.69,5.42,3.69,8.9s1.41,6.62,3.69,8.9c2.28,2.27,5.42,3.69,8.9,3.69s6.62-1.41,8.9-3.69c2.28-2.28,3.69-5.43,3.69-8.9s1.41-6.62,3.69-8.9c2.28-2.28,5.42-3.69,8.9-3.69s6.62,1.41,8.9,3.69c2.28,2.27,3.69,5.42,3.69,8.9"
     id="path1" />
  <path
     class="cls-2"
     d="M100.69,37.76c0,6.95-5.63,12.59-12.59,12.59-3.48,0-6.62-1.41-8.9-3.69-2.28-2.28-3.69-5.43-3.69-8.9,0-6.95-5.63-12.59-12.59-12.59-3.48,0-6.62,1.41-8.9,3.69-2.28,2.28-3.69,5.42-3.69,8.9,0,6.95-5.63,12.59-12.59,12.59-3.48,0-6.62-1.41-8.9-3.69-2.28-2.28-3.69-5.43-3.69-8.9s1.41-6.62,3.69-8.9c2.28-2.28,5.43-3.69,8.9-3.69s6.62-1.41,8.9-3.69,3.69-5.42,3.69-8.9,1.41-6.62,3.69-8.9c2.28-2.28,5.42-3.69,8.9-3.69s6.62,1.41,8.9,3.69c2.28,2.28,3.69,5.43,3.69,8.9s1.41,6.62,3.69,8.9,5.42,3.69,8.9,3.69,6.62,1.41,8.9,3.69c2.28,2.27,3.69,5.42,3.69,8.9"
     id="path2" />
  <path
     class="cls-9"
     d="M37.76,0C41.24,0,44.39,1.41,46.66,3.69c2.27,2.28,3.69,5.42,3.69,8.9s-1.41,6.62-3.69,8.9c-2.28,2.28-5.42,3.69-8.9,3.69-6.95,0-12.59,5.63-12.59,12.59,0,3.48-1.41,6.62-3.69,8.9s-5.42,3.69-8.9,3.69-6.62-1.41-8.9-3.69S0,41.24,0,37.76C0,30.81,5.63,25.17,12.59,25.17c3.48,0,6.62-1.41,8.9-3.69s3.69-5.42,3.69-8.9C25.17,5.63,30.81,0,37.76,0"
     id="path3" />
  <path
     class="cls-1"
     d="M113.28,0C116.76,0,119.9,1.41,122.18,3.69c2.27,2.28,3.69,5.42,3.69,8.9s-1.41,6.62-3.69,8.9c-2.28,2.28-5.42,3.69-8.9,3.69-6.95,0-12.59,5.63-12.59,12.59,0,3.48-1.41,6.62-3.69,8.9s-5.42,3.69-8.9,3.69-6.62-1.41-8.9-3.69-3.69-5.42-3.69-8.9c0-6.95,5.63-12.59,12.59-12.59,3.48,0,6.62-1.41,8.9-3.69s3.69-5.42,3.69-8.9C100.69,5.63,106.33,0,113.28,0"
     id="path4" />
  <g
     id="text15"
     class="cls-3"
     style="font-weight:500;font-size:26.07px;font-family:Megabyte-Medium, Megabyte;fill:#1d346f"
     transform="translate(114.47 48.91)"
     aria-label="ArianeMader">
    <path
       style="letter-spacing:0em"
       d="M 3.85836,0 5.1879299,-3.02412 H 13.50426 L 14.83383,0 h 3.44124 L 9.8283899,-18.90075 h -0.96459 L 0.46925999,0 Z M 9.3591299,-12.74823 12.30504,-5.7353999 H 6.4132199 Z"
       id="path5" />
    <path
       style="letter-spacing:-0.02em"
       d="m 23.352951,-13.92138 h -2.78949 V 0 h 3.10233 v -7.3517399 c 0,-1.38171 0.36498,-2.39844 1.12101,-3.0501901 0.65175,-0.59961 1.59027,-0.88638 2.78949,-0.88638 0.13035,0 0.33891,0.02607 0.57354,0.05214 v -2.78949 c -0.23463,-0.05214 -0.46926,-0.07821 -0.70389,-0.07821 -1.59027,0 -2.94591,0.70389 -4.04085,2.13774 z"
       id="path6" />
    <path
       style="letter-spacing:-0.02em"
       d="m 33.68007,-17.67546 c 0.83424,-0.80817 0.83424,-2.05953 0,-2.8677 -0.80817,-0.83424 -2.11167,-0.83424 -2.945909,0 -0.80817,0.80817 -0.80817,2.05953 0,2.8677 0.834239,0.80817 2.137739,0.80817 2.945909,0 z M 33.78435,0 V -13.92138 H 30.682021 V 0 Z"
       id="path7" />
    <path
       style="letter-spacing:0em"
       d="m 41.686451,0.28677 c 1.87704,0 3.31089,-0.62568 4.32762,-1.90311 L 46.118351,0 h 2.73735 v -8.4727499 c 0,-1.9031101 -0.39105,-3.3108901 -1.17315,-4.1712001 -0.96459,-1.06887 -2.47665,-1.59027 -4.56225,-1.59027 -1.95525,0 -3.80622,0.57354 -5.55291,1.69455 l 1.17315,2.3463 c 1.35564,-0.86031 2.71128,-1.3035 4.09299,-1.3035 1.98132,0 2.94591,0.83424 2.94591,2.9980501 v 0.99066 c -0.91245,-0.65175 -2.00739,-0.99066 -3.25875,-0.99066 -1.64241,0 -2.99805,0.41712 -4.06692,1.22529 -1.06887,0.80817 -1.59027,1.85097 -1.59027,3.1805399 0,1.38171 0.46926,2.45058 1.38171,3.23268001 0.93852,0.75602999 2.0856,1.14707999 3.44124,1.14707999 z m 1.06887,-2.37237 c -1.64241,0 -2.8677,-0.83424 -2.8677,-2.11167 0,-0.5996099 0.28677,-1.0688699 0.86031,-1.4599199 0.59961,-0.39105 1.27743,-0.59961 2.03346,-0.59961 1.59027,0 2.71128,0.72996 2.99805,1.69455 V -4.09299 c 0,0.93852 -1.14708,2.00739 -3.02412,2.00739 z"
       id="path8" />
    <path
       style="letter-spacing:0em"
       d="m 52.55346,0 h 3.10233 v -8.2641899 c 0,-1.8509701 1.22529,-3.1805401 3.07626,-3.1805401 1.87704,0 2.97198,1.32957 2.97198,3.2066101 V 0 h 3.10233 v -8.5248899 c 0,-1.7466901 -0.46926,-3.1544701 -1.38171,-4.1712001 -0.91245,-1.01673 -2.16381,-1.53813 -3.75408,-1.53813 -1.77276,0 -3.20661,0.65175 -4.27548,1.98132 l -0.05214,-1.66848 h -2.78949 z"
       id="path9" />
    <path
       d="m 74.976679,0.31284 c 2.32023,0 4.24941,-0.75602999 5.83968,-2.26809 l -1.66848,-1.95525 c -1.27743,1.01673 -2.607,1.51206 -4.01478,1.51206 -2.26809,0 -4.04085,-1.25136 -4.4319,-3.5194499 h 10.48014 c 0.07821,-0.36498 0.13035,-0.88638 0.13035,-1.53813 0,-2.03346 -0.59961,-3.6758701 -1.77276,-4.9011601 -1.22529,-1.25136 -2.81556,-1.87704 -4.77081,-1.87704 -2.00739,0 -3.70194,0.70389 -5.08365,2.13774 -1.38171,1.40778 -2.05953,3.1284001 -2.05953,5.1618601 0,2.11167 0.70389,3.8322899 2.11167,5.2139999 1.40778,1.35564 3.15447,2.03346 5.24007,2.03346 z m -4.27548,-8.4206099 c 0.33891,-1.9813201 1.92918,-3.4412401 4.01478,-3.4412401 1.01673,0 1.87704,0.33891 2.52879,0.99066 0.67782,0.7038901 1.01673,1.5381301 0.99066,2.4505801 z"
       id="path10" />
    <path
       style="letter-spacing:0em"
       d="m 92.467267,-18.90075 h -0.99066 L 89.547427,0 h 3.1284 l 1.06887,-10.79298 5.24007,9.17664 h 0.83424 L 105.05908,-10.79298 106.12795,0 h 3.1284 l -1.92918,-18.90075 h -0.99066 l -6.934623,12.0964801 z"
       id="path11" />
    <path
       style="letter-spacing:0em"
       d="m 116.62645,0.28677 c 1.87704,0 3.31089,-0.62568 4.32762,-1.90311 L 121.05835,0 h 2.73735 v -8.4727499 c 0,-1.9031101 -0.39105,-3.3108901 -1.17315,-4.1712001 -0.96459,-1.06887 -2.47665,-1.59027 -4.56225,-1.59027 -1.95525,0 -3.80622,0.57354 -5.55291,1.69455 l 1.17315,2.3463 c 1.35564,-0.86031 2.71128,-1.3035 4.09299,-1.3035 1.98132,0 2.94591,0.83424 2.94591,2.9980501 v 0.99066 c -0.91245,-0.65175 -2.00739,-0.99066 -3.25875,-0.99066 -1.64241,0 -2.99805,0.41712 -4.06692,1.22529 -1.06887,0.80817 -1.59027,1.85097 -1.59027,3.1805399 0,1.38171 0.46926,2.45058 1.38171,3.23268001 0.93852,0.75602999 2.0856,1.14707999 3.44124,1.14707999 z m 1.06887,-2.37237 c -1.64241,0 -2.8677,-0.83424 -2.8677,-2.11167 0,-0.5996099 0.28677,-1.0688699 0.86031,-1.4599199 0.59961,-0.39105 1.27743,-0.59961 2.03346,-0.59961 1.59027,0 2.71128,0.72996 2.99805,1.69455 V -4.09299 c 0,0.93852 -1.14708,2.00739 -3.02412,2.00739 z"
       id="path12" />
    <path
       style="letter-spacing:0em"
       d="m 133.31886,0.28677 c 2.03346,0 3.6498,-0.78209999 4.82295,-2.3463 L 138.22002,0 h 2.78949 v -21.14277 h -3.10233 v 9.02022 c -1.06887,-1.38171 -2.607,-2.0856 -4.58832,-2.0856 -1.95525,0 -3.54552,0.70389 -4.79688,2.13774 -1.25136,1.40778 -1.87704,3.1023301 -1.87704,5.1097201 0,2.00739 0.59961,3.7280099 1.8249,5.1357899 1.22529,1.40778 2.84163,2.11167 4.84902,2.11167 z m 0.62568,-2.78949 c -1.22529,0 -2.21595,-0.41712 -2.99805,-1.22529 -0.75603,-0.8342399 -1.14708,-1.9291799 -1.14708,-3.2587499 0,-1.27743 0.36498,-2.3463 1.12101,-3.1805401 0.75603,-0.86031 1.77276,-1.27743 3.02412,-1.27743 2.47665,0 4.09299,1.7727601 4.09299,4.4579701 0,1.32957 -0.39105,2.42451 -1.17315,3.2587499 -0.75603,0.80817 -1.74669,1.22529 -2.91984,1.22529 z"
       id="path13" />
    <path
       style="letter-spacing:0em"
       d="m 151.35668,0.31284 c 2.32023,0 4.24941,-0.75602999 5.83968,-2.26809 l -1.66848,-1.95525 c -1.27743,1.01673 -2.607,1.51206 -4.01478,1.51206 -2.26809,0 -4.04085,-1.25136 -4.4319,-3.5194499 h 10.48014 c 0.0782,-0.36498 0.13035,-0.88638 0.13035,-1.53813 0,-2.03346 -0.59961,-3.6758701 -1.77276,-4.9011601 -1.22529,-1.25136 -2.81556,-1.87704 -4.77081,-1.87704 -2.00739,0 -3.70194,0.70389 -5.08365,2.13774 -1.38171,1.40778 -2.05953,3.1284001 -2.05953,5.1618601 0,2.11167 0.70389,3.8322899 2.11167,5.2139999 1.40778,1.35564 3.15447,2.03346 5.24007,2.03346 z m -4.27548,-8.4206099 c 0.33891,-1.9813201 1.92918,-3.4412401 4.01478,-3.4412401 1.01673,0 1.87704,0.33891 2.52879,0.99066 0.67782,0.7038901 1.01673,1.5381301 0.99066,2.4505801 z"
       id="path14" />
    <path
       d="m 163.45295,-13.92138 h -2.78949 V 0 h 3.10233 v -7.3517399 c 0,-1.38171 0.36498,-2.39844 1.12101,-3.0501901 0.65175,-0.59961 1.59027,-0.88638 2.78949,-0.88638 0.13035,0 0.33891,0.02607 0.57354,0.05214 v -2.78949 c -0.23463,-0.05214 -0.46926,-0.07821 -0.70389,-0.07821 -1.59027,0 -2.94591,0.70389 -4.04085,2.13774 z"
       id="path15" />
  </g>
  <g
     id="text19"
     style="font-size:15px;font-family:Calibri, Calibri;fill:#30b28e"
     class="cls-4"
     transform="translate(129.28 65.91)"
     aria-label="coaching &amp;counselling">
    <path
       style="letter-spacing:0em"
       d="m 5.859375,-1.1865234 q 0,0.1245117 -0.00732,0.21972652 -0.00732,0.0878906 -0.029297,0.1538086 -0.014648,0.0585938 -0.043945,0.10986328 -0.021973,0.0439453 -0.1171875,0.13916016 -0.087891,0.0878906 -0.3076172,0.22705078 Q 5.1342773,-0.20507813 4.855957,-0.09521484 4.5849609,0.00732422 4.2626953,0.07324219 3.9404297,0.13916016 3.5961914,0.13916016 q -0.7104492,0 -1.2597656,-0.234375 Q 1.7871094,-0.32958984 1.4135742,-0.77636719 1.0473633,-1.2304687 0.84960938,-1.8823242 0.65917969,-2.5415039 0.65917969,-3.3984375 q 0,-0.9741211 0.234375,-1.6699219 0.24169921,-0.703125 0.65185551,-1.1499023 0.4174804,-0.4467774 0.9741211,-0.6591797 0.5639648,-0.2197266 1.2158203,-0.2197266 0.3149414,0 0.6079101,0.058594 0.300293,0.058594 0.5493164,0.1538086 0.2490235,0.095215 0.4394531,0.2197265 0.197754,0.1245118 0.2856446,0.2124024 0.087891,0.087891 0.1171875,0.1391601 0.036621,0.05127 0.058594,0.1245118 0.021973,0.065918 0.029297,0.1538086 0.00732,0.087891 0.00732,0.2197265 0,0.2856445 -0.065918,0.402832 -0.065918,0.1098633 -0.1611329,0.1098633 -0.1098632,0 -0.2563476,-0.1171875 Q 5.2075195,-5.5444336 4.987793,-5.690918 4.7680664,-5.8374023 4.453125,-5.9545898 4.1455078,-6.0791016 3.7207031,-6.0791016 q -0.871582,0 -1.340332,0.6738282 -0.4614258,0.6665039 -0.4614258,1.9409179 0,0.6372071 0.1171875,1.1206055 0.1245117,0.4760742 0.3588867,0.7983398 0.234375,0.3222657 0.5712891,0.4833985 0.3442383,0.15380857 0.7836914,0.15380857 0.4174805,0 0.7324219,-0.13183597 0.3149414,-0.1318359 0.5419922,-0.2856445 0.234375,-0.1611328 0.3881836,-0.2856445 0.1611328,-0.131836 0.2490234,-0.131836 0.05127,0 0.087891,0.029297 0.036621,0.029297 0.058594,0.1025391 0.029297,0.065918 0.036621,0.1757812 0.014648,0.1025391 0.014648,0.2490235 z"
       id="path16" />
    <path
       style="letter-spacing:0em"
       d="m 13.470976,-3.5522461 q 0,0.8056641 -0.212402,1.4868164 -0.212402,0.6738281 -0.637207,1.16455079 -0.41748,0.49072266 -1.054688,0.76904297 -0.629882,0.2709961 -1.464843,0.2709961 -0.8129886,0 -1.4208987,-0.24169922 -0.6005859,-0.24169922 -1.003418,-0.703125 Q 7.2746873,-1.2670898 7.0769334,-1.9262695 6.8791795,-2.5854492 6.8791795,-3.4204102 q 0,-0.805664 0.2050781,-1.4794921 0.2124023,-0.6811524 0.6298828,-1.171875 0.4248047,-0.4907227 1.0546875,-0.7617188 0.6298828,-0.2709961 1.4721681,-0.2709961 0.812988,0 1.413574,0.2416992 0.60791,0.2416993 1.010742,0.703125 0.402832,0.4614258 0.600586,1.1206055 0.205078,0.6591797 0.205078,1.4868164 z m -1.274414,0.080566 q 0,-0.534668 -0.102539,-1.0107422 -0.09521,-0.4760742 -0.322265,-0.8349609 Q 11.544707,-5.6762695 11.156523,-5.8813477 10.76834,-6.09375 10.189726,-6.09375 q -0.5346676,0 -0.9228512,0.1904297 -0.3808594,0.1904297 -0.6298828,0.5419922 -0.2490235,0.3442383 -0.3735352,0.8203125 -0.1171875,0.4760742 -0.1171875,1.040039 0,0.5419922 0.095215,1.0180664 0.102539,0.4760743 0.3295898,0.834961 0.234375,0.3515625 0.6225586,0.5639648 0.3881836,0.20507815 0.9667964,0.20507815 0.527344,0 0.915528,-0.19042965 0.388183,-0.1904297 0.637207,-0.534668 0.249023,-0.3442383 0.366211,-0.8203125 0.117187,-0.4760742 0.117187,-1.0473633 z m 8.02002,3.29589845 q 0,0.08789063 -0.05859,0.13183594 Q 20.099394,0 19.996855,0.02197266 q -0.102539,0.02197265 -0.300293,0.02197265 -0.190429,0 -0.307617,-0.02197265 Q 19.279082,0 19.227812,-0.04394531 q -0.05127,-0.04394531 -0.05127,-0.13183594 v -0.65917969 q -0.432129,0.46142578 -0.966797,0.71777344 -0.527344,0.25634766 -1.120606,0.25634766 -0.520019,0 -0.944824,-0.13916016 -0.41748,-0.13183594 -0.717773,-0.38818359 -0.292969,-0.25634766 -0.461426,-0.62988281 -0.161133,-0.3735352 -0.161133,-0.8496094 0,-0.5566406 0.227051,-0.9667969 0.227051,-0.4101562 0.651855,-0.6811523 0.424805,-0.2709961 1.040039,-0.402832 0.615235,-0.1391602 1.384278,-0.1391602 h 0.908203 v -0.5126953 q 0,-0.3808594 -0.08057,-0.6738281 -0.08057,-0.2929688 -0.263672,-0.4833985 -0.175782,-0.1977539 -0.461426,-0.2929687 -0.285645,-0.1025391 -0.703125,-0.1025391 -0.446777,0 -0.805664,0.1098633 -0.351563,0.1025391 -0.622559,0.234375 -0.263672,0.1245117 -0.446777,0.234375 -0.175781,0.1025391 -0.263672,0.1025391 -0.05859,0 -0.102539,-0.029297 -0.04394,-0.029297 -0.08057,-0.087891 -0.0293,-0.058594 -0.04395,-0.1464844 -0.01465,-0.095215 -0.01465,-0.2050781 0,-0.1831055 0.02197,-0.2856446 0.0293,-0.1098632 0.124512,-0.2050781 0.102539,-0.095215 0.344238,-0.2197265 0.2417,-0.131836 0.556641,-0.234375 0.314941,-0.1098633 0.688477,-0.1757813 0.373535,-0.073242 0.754394,-0.073242 0.710449,0 1.208496,0.1611328 0.498047,0.1611328 0.805664,0.4760742 0.307618,0.3076172 0.446778,0.769043 0.13916,0.4614258 0.13916,1.0766602 z M 19.01541,-3.1860352 h -1.032715 q -0.498047,0 -0.864258,0.087891 -0.366211,0.080566 -0.60791,0.2490234 -0.241699,0.1611328 -0.358887,0.3955078 -0.109863,0.2270508 -0.109863,0.5273438 0,0.5126953 0.322266,0.8203125 0.32959,0.30029294 0.915527,0.30029294 0.476074,0 0.878906,-0.24169924 0.410157,-0.2416992 0.856934,-0.7397461 z m 8.15918,1.9995118 q 0,0.1245117 -0.0073,0.21972652 -0.0073,0.0878906 -0.0293,0.1538086 -0.01465,0.0585938 -0.04395,0.10986328 -0.02197,0.0439453 -0.117187,0.13916016 -0.08789,0.0878906 -0.307617,0.22705078 -0.219727,0.13183593 -0.498047,0.24169922 -0.270996,0.10253906 -0.593262,0.16845703 -0.322266,0.06591797 -0.666504,0.06591797 -0.710449,0 -1.259766,-0.234375 -0.549316,-0.234375 -0.922851,-0.68115235 -0.366211,-0.45410151 -0.563965,-1.10595701 -0.19043,-0.6591797 -0.19043,-1.5161133 0,-0.9741211 0.234375,-1.6699219 0.2417,-0.703125 0.651856,-1.1499023 0.41748,-0.4467774 0.974121,-0.6591797 0.563965,-0.2197266 1.21582,-0.2197266 0.314942,0 0.60791,0.058594 0.300293,0.058594 0.549317,0.1538086 0.249023,0.095215 0.439453,0.2197265 0.197754,0.1245118 0.285644,0.2124024 0.08789,0.087891 0.117188,0.1391601 0.03662,0.05127 0.05859,0.1245118 0.02197,0.065918 0.0293,0.1538086 0.0073,0.087891 0.0073,0.2197265 0,0.2856445 -0.06592,0.402832 -0.06592,0.1098633 -0.161133,0.1098633 -0.109863,0 -0.256348,-0.1171875 -0.13916,-0.1245117 -0.358886,-0.2709961 -0.219727,-0.1464843 -0.534668,-0.2636718 -0.307618,-0.1245118 -0.732422,-0.1245118 -0.871582,0 -1.340332,0.6738282 -0.461426,0.6665039 -0.461426,1.9409179 0,0.6372071 0.117187,1.1206055 0.124512,0.4760742 0.358887,0.7983398 0.234375,0.3222657 0.571289,0.4833985 0.344239,0.15380857 0.783692,0.15380857 0.41748,0 0.732422,-0.13183597 0.314941,-0.1318359 0.541992,-0.2856445 0.234375,-0.1611328 0.388183,-0.2856445 0.161133,-0.131836 0.249024,-0.131836 0.05127,0 0.08789,0.029297 0.03662,0.029297 0.05859,0.1025391 0.0293,0.065918 0.03662,0.1757812 0.01465,0.1025391 0.01465,0.2490235 z m 7.280273,1.00341793 q 0,0.0585937 -0.0293,0.10253906 -0.0293,0.0366211 -0.09522,0.06591797 -0.06592,0.02929688 -0.183105,0.04394532 -0.117188,0.01464843 -0.292969,0.01464843 -0.183105,0 -0.300293,-0.01464843 -0.117187,-0.01464844 -0.183105,-0.04394532 -0.06592,-0.02929687 -0.09522,-0.06591797 -0.0293,-0.04394531 -0.0293,-0.10253906 V -4.0429687 q 0,-0.5639649 -0.08789,-0.9082032 -0.08789,-0.3442383 -0.256347,-0.5932617 -0.168457,-0.2490234 -0.439453,-0.3808594 -0.263672,-0.1318359 -0.615235,-0.1318359 -0.454101,0 -0.908203,0.3222656 -0.454101,0.3222656 -0.952148,0.9448242 v 4.60693363 q 0,0.0585937 -0.0293,0.10253906 -0.0293,0.0366211 -0.09521,0.06591797 -0.06592,0.02929688 -0.183106,0.04394532 -0.117187,0.01464843 -0.300293,0.01464843 -0.175781,0 -0.292968,-0.01464843 -0.117188,-0.01464844 -0.19043,-0.04394532 -0.06592,-0.02929687 -0.09521,-0.06591797 -0.02197,-0.04394531 -0.02197,-0.10253906 V -9.9682617 q 0,-0.058593 0.02197,-0.1025393 0.0293,-0.04395 0.09521,-0.07324 0.07324,-0.0293 0.19043,-0.04395 0.117187,-0.01465 0.292968,-0.01465 0.183106,0 0.300293,0.01465 0.117188,0.01465 0.183106,0.04395 0.06592,0.0293 0.09521,0.07324 0.0293,0.04395 0.0293,0.1025393 v 3.9477539 q 0.520019,-0.5493164 1.047363,-0.8129883 0.527344,-0.2709961 1.062012,-0.2709961 0.659179,0 1.105957,0.2270508 0.454101,0.2197266 0.732422,0.5932617 0.27832,0.3735352 0.395507,0.8789063 0.124512,0.4980468 0.124512,1.2084961 z m 3.413086,0 q 0,0.0585937 -0.0293,0.10253906 -0.0293,0.0366211 -0.09522,0.06591797 -0.06592,0.02929688 -0.183105,0.04394532 -0.117188,0.01464843 -0.300293,0.01464843 -0.175781,0 -0.292969,-0.01464843 -0.117187,-0.01464844 -0.19043,-0.04394532 -0.06592,-0.02929687 -0.09521,-0.06591797 -0.02197,-0.04394531 -0.02197,-0.10253906 V -6.7749023 q 0,-0.05127 0.02197,-0.095215 0.0293,-0.043945 0.09521,-0.073242 0.07324,-0.029297 0.19043,-0.043945 0.117188,-0.014648 0.292969,-0.014648 0.183105,0 0.300293,0.014648 0.117187,0.014648 0.183105,0.043945 0.06592,0.029297 0.09522,0.073242 0.0293,0.043945 0.0293,0.095215 z m 0.13916,-8.81835933 q 0,0.4248046 -0.161133,0.5786132 -0.161132,0.1538086 -0.593261,0.1538086 -0.424805,0 -0.585938,-0.1464843 -0.153808,-0.1538086 -0.153808,-0.5712891 0,-0.4248047 0.161132,-0.5786133 0.161133,-0.1538086 0.593262,-0.1538086 0.424805,0 0.578613,0.1538086 0.161133,0.1464844 0.161133,0.5639649 z m 7.770996,8.81835933 q 0,0.0585937 -0.0293,0.10253906 -0.0293,0.0366211 -0.09521,0.06591797 -0.06592,0.02929688 -0.183106,0.04394532 -0.117187,0.01464843 -0.292969,0.01464843 -0.183105,0 -0.300293,-0.01464843 -0.117187,-0.01464844 -0.183105,-0.04394532 -0.06592,-0.02929687 -0.09522,-0.06591797 -0.0293,-0.04394531 -0.0293,-0.10253906 V -4.0429687 q 0,-0.5639649 -0.08789,-0.9082032 -0.08789,-0.3442383 -0.256348,-0.5932617 -0.168457,-0.2490234 -0.439453,-0.3808594 -0.263672,-0.1318359 -0.615235,-0.1318359 -0.454101,0 -0.908203,0.3222656 -0.454101,0.3222656 -0.952148,0.9448242 v 4.60693363 q 0,0.0585937 -0.0293,0.10253906 -0.0293,0.0366211 -0.09522,0.06591797 -0.06592,0.02929688 -0.183105,0.04394532 -0.117188,0.01464843 -0.300293,0.01464843 -0.175782,0 -0.292969,-0.01464843 -0.117188,-0.01464844 -0.19043,-0.04394532 -0.06592,-0.02929687 -0.09522,-0.06591797 -0.02197,-0.04394531 -0.02197,-0.10253906 V -6.7749023 q 0,-0.058594 0.02197,-0.095215 0.02197,-0.043945 0.08789,-0.073242 0.06592,-0.036621 0.168457,-0.043945 0.102539,-0.014648 0.270996,-0.014648 0.161133,0 0.263672,0.014648 0.109863,0.00732 0.168457,0.043945 0.05859,0.029297 0.08057,0.073242 0.0293,0.036621 0.0293,0.095215 v 0.871582 q 0.556641,-0.6225586 1.105957,-0.9082031 0.556641,-0.2929688 1.120606,-0.2929688 0.65918,0 1.105957,0.2270508 0.454101,0.2197266 0.732422,0.5932617 0.27832,0.3735352 0.395508,0.8789063 0.124511,0.4980468 0.124511,1.2011718 z m 7.712403,-6.29150393 q 0,0.2563477 -0.07324,0.3735352 -0.06592,0.1098633 -0.175781,0.1098633 H 52.29666 q 0.256348,0.2636718 0.358887,0.5859375 0.102539,0.3149414 0.102539,0.6591797 0,0.571289 -0.183106,1.0107421 -0.183105,0.4394532 -0.527343,0.7470703 -0.336915,0.300293 -0.805665,0.4614258 -0.46875,0.1611328 -1.040039,0.1611328 -0.402832,0 -0.769043,-0.102539 -0.358886,-0.1098633 -0.55664,-0.2709961 -0.131836,0.1318359 -0.219727,0.300293 -0.08057,0.168457 -0.08057,0.3881835 0,0.2563477 0.234375,0.4248047 0.241699,0.1684571 0.637207,0.1831055 l 1.721191,0.073242 q 0.490723,0.014648 0.900879,0.1391602 0.410156,0.1171875 0.710449,0.34423823 0.300293,0.21972656 0.46875,0.54931641 0.168457,0.32226562 0.168457,0.75439453 0,0.45410156 -0.190429,0.86425783 -0.19043,0.4101562 -0.585938,0.7177734 -0.388183,0.3149414 -0.996094,0.4907227 -0.60791,0.1831054 -1.435546,0.1831054 -0.79834,0 -1.362305,-0.1391601 Q 48.290312,2.4023438 47.931426,2.1679688 47.572539,1.9335937 47.411406,1.6040039 47.250273,1.2817383 47.250273,0.90087891 q 0,-0.24169922 0.05859,-0.46875 Q 47.367461,0.20507813 47.484648,0 q 0.124512,-0.20507813 0.300293,-0.38818359 0.183106,-0.19042969 0.417481,-0.37353516 -0.358887,-0.18310547 -0.534668,-0.46142575 -0.168457,-0.2783203 -0.168457,-0.600586 0,-0.4467773 0.183105,-0.7983398 0.183106,-0.3515625 0.454102,-0.6298828 -0.227051,-0.2709961 -0.358887,-0.6079102 -0.131836,-0.3442383 -0.131836,-0.8276367 0,-0.5639648 0.19043,-1.0107422 0.190429,-0.4467773 0.527343,-0.7543945 0.336915,-0.3076172 0.805665,-0.46875 0.476074,-0.168457 1.032714,-0.168457 0.300293,0 0.556641,0.036621 0.263672,0.029297 0.490723,0.087891 h 1.992187 q 0.124512,0 0.183106,0.1245117 0.06592,0.1171875 0.06592,0.3662109 z m -1.889649,1.7358399 q 0,-0.6738282 -0.373535,-1.0473633 -0.366211,-0.3808594 -1.047363,-0.3808594 -0.351563,0 -0.615235,0.1171875 -0.256347,0.1171875 -0.432129,0.3222656 -0.168457,0.2050782 -0.256347,0.4760743 -0.08057,0.2636718 -0.08057,0.5566406 0,0.6518555 0.366211,1.0253906 0.373535,0.3735352 1.040039,0.3735352 0.358887,0 0.622559,-0.1098633 0.263672,-0.1171875 0.432129,-0.3149414 0.175781,-0.2050782 0.256348,-0.46875 0.08789,-0.2636719 0.08789,-0.5493164 z m 0.60791,5.22216794 q 0,-0.42480469 -0.351562,-0.65185547 -0.344238,-0.234375 -0.9375,-0.24902344 l -1.706543,-0.0585938 q -0.234375,0.18310547 -0.388184,0.3515625 -0.146484,0.16113281 -0.234375,0.30761719 -0.08789,0.15380859 -0.124511,0.30029297 -0.0293,0.14648437 -0.0293,0.30029297 0,0.47607419 0.483398,0.71777339 0.483399,0.2490235 1.347656,0.2490235 0.549317,0 0.915528,-0.1098633 0.373535,-0.1025391 0.600586,-0.2783203 0.22705,-0.1757813 0.322265,-0.40283204 0.102539,-0.22705079 0.102539,-0.47607422 z m 5.895996,-2.98095704 q 0,-0.402832 0.109864,-0.7617187 0.109863,-0.366211 0.344238,-0.703125 0.234375,-0.3442383 0.60791,-0.6591797 0.38086,-0.3222657 0.915527,-0.6445313 -0.292968,-0.3955078 -0.505371,-0.7177734 -0.205078,-0.3222656 -0.344238,-0.600586 -0.131836,-0.2783203 -0.19043,-0.5273437 -0.05859,-0.2563477 -0.05859,-0.5126953 0,-0.4541016 0.153808,-0.8642578 0.153809,-0.4174805 0.490723,-0.7324219 0.344238,-0.3222656 0.878906,-0.5053711 0.534668,-0.1904297 1.296387,-0.1904297 0.644531,0 1.113281,0.1391602 0.476074,0.1391601 0.783692,0.3955078 0.314941,0.2563476 0.46875,0.6225586 0.161132,0.3588867 0.161132,0.805664 0,0.4321289 -0.13916,0.7910157 -0.13916,0.3588867 -0.446777,0.6958007 -0.307617,0.3369141 -0.791016,0.6738282 -0.476074,0.3295898 -1.157226,0.6958008 0.249023,0.3002929 0.541992,0.6298828 0.292969,0.3222656 0.60791,0.6518554 0.322266,0.3295899 0.651855,0.6518555 0.336915,0.3149414 0.65918,0.6079102 0.146485,-0.197754 0.263672,-0.4467774 0.117188,-0.2563476 0.205078,-0.534668 0.08789,-0.2856445 0.131836,-0.5786132 0.04394,-0.2929688 0.04394,-0.5932618 v -0.2636718 q 0,-0.073242 0.02197,-0.1171875 0.0293,-0.05127 0.08789,-0.080566 0.05859,-0.036621 0.168457,-0.05127 0.117187,-0.014648 0.300293,-0.014648 0.161133,0 0.270996,0.00732 0.117187,0.00732 0.190429,0.036621 0.07324,0.021973 0.10254,0.080566 0.03662,0.05127 0.03662,0.1464844 v 0.1831055 q 0,0.4101562 -0.07324,0.805664 -0.06592,0.3955078 -0.190429,0.7763672 -0.117188,0.3735352 -0.300293,0.7177734 -0.175781,0.3442383 -0.395508,0.6372071 0.32959,0.2636719 0.571289,0.4394531 0.249023,0.1757813 0.417481,0.2856445 0.175781,0.1098633 0.285644,0.15380862 0.117188,0.0439453 0.19043,0.0439453 0.07324,0 0.13916,-0.007324 0.06592,-0.007324 0.102539,0.0219727 0.04394,0.0292969 0.06592,0.11718751 0.02197,0.0878906 0.02197,0.27099609 0,0.18310547 -0.0073,0.29296875 -0.0073,0.10986328 -0.0293,0.16845703 -0.01465,0.05126953 -0.05859,0.08789063 -0.04395,0.03662109 -0.161133,0.06591796 -0.117188,0.02929688 -0.307617,0.02929688 -0.146485,0 -0.322266,-0.05126953 Q 65.853789,0.02197266 65.619414,-0.10253906 65.385039,-0.234375 65.070097,-0.45410156 64.76248,-0.67382812 64.345,-1.0107422 q -0.307617,0.24902345 -0.651856,0.46142579 -0.336914,0.21240235 -0.725097,0.36621094 -0.38086,0.14648438 -0.805664,0.22705078 -0.417481,0.08789063 -0.908204,0.08789063 -0.461425,0 -0.878906,-0.08056641 -0.410156,-0.08056641 -0.761719,-0.22705078 -0.351562,-0.15380859 -0.629882,-0.38085937 -0.278321,-0.22705079 -0.476075,-0.51269528 -0.190429,-0.2929688 -0.300293,-0.6518555 -0.102539,-0.3588867 -0.102539,-0.7763672 z m 2.160645,-5.222168 q 0,0.1977539 0.05127,0.4028321 0.05859,0.2050781 0.168458,0.4321289 0.117187,0.2197265 0.27832,0.4760742 0.168457,0.2563477 0.395508,0.5712891 0.534668,-0.300293 0.893554,-0.5493164 0.366211,-0.2563477 0.585938,-0.4907227 0.219726,-0.234375 0.314941,-0.46875 0.102539,-0.234375 0.102539,-0.4980469 0,-0.2124023 -0.08057,-0.402832 -0.07324,-0.1977539 -0.241699,-0.3442383 -0.168457,-0.1538086 -0.424805,-0.2416992 -0.256348,-0.087891 -0.615234,-0.087891 -0.388184,0 -0.65918,0.102539 -0.263672,0.095215 -0.439453,0.2636719 -0.168457,0.1611328 -0.249024,0.3808594 -0.08057,0.2197265 -0.08057,0.4541015 z m -0.849609,5.0976563 q 0,0.3808594 0.124511,0.6958008 0.131836,0.3149414 0.38086,0.5493164 0.249023,0.2270508 0.622558,0.3588867 0.373535,0.12451171 0.864258,0.12451171 0.300293,0 0.585938,-0.0585938 0.285644,-0.065918 0.541992,-0.16845706 0.263672,-0.1098632 0.498047,-0.2563476 0.234375,-0.1538086 0.432129,-0.3222656 -0.38086,-0.3295899 -0.761719,-0.6811524 -0.373535,-0.3588867 -0.725098,-0.7177734 -0.351562,-0.3588868 -0.681152,-0.7104493 -0.322266,-0.3588867 -0.593262,-0.6958007 -0.366211,0.234375 -0.615234,0.46875 -0.2417,0.2270507 -0.395508,0.4614257 -0.146484,0.2270508 -0.212402,0.4614258 -0.06592,0.234375 -0.06592,0.4907227 z M 57.31375,-9.4775391 Z"
       id="path17" />
    <path
       style="letter-spacing:0em"
       d="m 76.799377,-1.1865234 q 0,0.1245117 -0.0073,0.21972652 -0.0073,0.0878906 -0.0293,0.1538086 -0.01465,0.0585938 -0.04394,0.10986328 -0.02197,0.0439453 -0.117187,0.13916016 -0.08789,0.0878906 -0.307618,0.22705078 -0.219726,0.13183593 -0.498047,0.24169922 -0.270996,0.10253906 -0.593261,0.16845703 -0.322266,0.06591797 -0.666504,0.06591797 -0.710449,0 -1.259766,-0.234375 -0.549316,-0.234375 -0.922851,-0.68115235 -0.366211,-0.45410151 -0.563965,-1.10595701 -0.19043,-0.6591797 -0.19043,-1.5161133 0,-0.9741211 0.234375,-1.6699219 0.241699,-0.703125 0.651856,-1.1499023 0.41748,-0.4467774 0.974121,-0.6591797 0.563965,-0.2197266 1.21582,-0.2197266 0.314941,0 0.60791,0.058594 0.300293,0.058594 0.549317,0.1538086 0.249023,0.095215 0.439453,0.2197265 0.197754,0.1245118 0.285644,0.2124024 0.08789,0.087891 0.117188,0.1391601 0.03662,0.05127 0.05859,0.1245118 0.02197,0.065918 0.0293,0.1538086 0.0073,0.087891 0.0073,0.2197265 0,0.2856445 -0.06592,0.402832 -0.06592,0.1098633 -0.161133,0.1098633 -0.109863,0 -0.256348,-0.1171875 -0.13916,-0.1245117 -0.358887,-0.2709961 -0.219726,-0.1464843 -0.534668,-0.2636718 -0.307617,-0.1245118 -0.732421,-0.1245118 -0.871582,0 -1.340332,0.6738282 -0.461426,0.6665039 -0.461426,1.9409179 0,0.6372071 0.117187,1.1206055 0.124512,0.4760742 0.358887,0.7983398 0.234375,0.3222657 0.571289,0.4833985 0.344238,0.15380857 0.783691,0.15380857 0.417481,0 0.732422,-0.13183597 0.314942,-0.1318359 0.541993,-0.2856445 0.234375,-0.1611328 0.388183,-0.2856445 0.161133,-0.131836 0.249024,-0.131836 0.05127,0 0.08789,0.029297 0.03662,0.029297 0.05859,0.1025391 0.0293,0.065918 0.03662,0.1757812 0.01465,0.1025391 0.01465,0.2490235 z"
       id="path18" />
    <path
       d="m 84.440979,-3.5522461 q 0,0.8056641 -0.212402,1.4868164 -0.212403,0.6738281 -0.637207,1.16455079 -0.417481,0.49072266 -1.054688,0.76904297 -0.629883,0.2709961 -1.464844,0.2709961 -0.812988,0 -1.420898,-0.24169922 -0.600586,-0.24169922 -1.003418,-0.703125 -0.402832,-0.46142574 -0.600586,-1.12060544 -0.197754,-0.6591797 -0.197754,-1.4941407 0,-0.805664 0.205078,-1.4794921 0.212403,-0.6811524 0.629883,-1.171875 0.424805,-0.4907227 1.054688,-0.7617188 0.629882,-0.2709961 1.472168,-0.2709961 0.812988,0 1.413574,0.2416992 0.60791,0.2416993 1.010742,0.703125 0.402832,0.4614258 0.600586,1.1206055 0.205078,0.6591797 0.205078,1.4868164 z m -1.274414,0.080566 q 0,-0.534668 -0.102539,-1.0107422 -0.09521,-0.4760742 -0.322266,-0.8349609 -0.227051,-0.3588867 -0.615234,-0.5639649 -0.388184,-0.2124023 -0.966797,-0.2124023 -0.534668,0 -0.922852,0.1904297 -0.380859,0.1904297 -0.629882,0.5419922 -0.249024,0.3442383 -0.373536,0.8203125 -0.117187,0.4760742 -0.117187,1.040039 0,0.5419922 0.09522,1.0180664 0.102539,0.4760743 0.32959,0.834961 0.234375,0.3515625 0.622558,0.5639648 0.388184,0.20507815 0.966797,0.20507815 0.527344,0 0.915527,-0.19042965 0.388184,-0.1904297 0.637208,-0.534668 0.249023,-0.3442383 0.36621,-0.8203125 0.117188,-0.4760742 0.117188,-1.0473633 z m 8.701172,3.28857423 q 0,0.0585937 -0.0293,0.10253906 -0.02197,0.0366211 -0.08789,0.06591797 -0.06592,0.02929688 -0.175781,0.04394532 -0.102539,0.01464843 -0.256348,0.01464843 -0.168457,0 -0.27832,-0.01464843 -0.102539,-0.01464844 -0.168457,-0.04394532 -0.05859,-0.02929687 -0.08057,-0.06591797 -0.02197,-0.04394531 -0.02197,-0.10253906 V -1.0546875 q -0.563965,0.62255859 -1.113281,0.90820313 -0.549317,0.28564453 -1.113281,0.28564453 -0.65918,0 -1.113282,-0.21972657 -0.446777,-0.21972656 -0.725097,-0.59326171 -0.278321,-0.38085938 -0.402832,-0.87890628 -0.117188,-0.5053711 -0.117188,-1.2231445 v -3.9990234 q 0,-0.058594 0.02197,-0.095215 0.0293,-0.043945 0.102539,-0.073242 0.07324,-0.036621 0.190429,-0.043945 0.117188,-0.014648 0.292969,-0.014648 0.175781,0 0.292969,0.014648 0.117187,0.00732 0.183105,0.043945 0.07324,0.029297 0.10254,0.073242 0.0293,0.036621 0.0293,0.095215 v 3.8378906 q 0,0.5786133 0.08057,0.9301758 0.08789,0.3442382 0.256347,0.5932617 0.175782,0.2416992 0.439454,0.3808594 0.263671,0.13183589 0.615234,0.13183589 0.454102,0 0.900879,-0.32226559 0.454101,-0.3222657 0.959473,-0.9448243 v -4.6069335 q 0,-0.058594 0.02197,-0.095215 0.0293,-0.043945 0.102539,-0.073242 0.07324,-0.036621 0.183106,-0.043945 0.117187,-0.014648 0.300293,-0.014648 0.175781,0 0.292968,0.014648 0.117188,0.00732 0.183106,0.043945 0.06592,0.029297 0.09521,0.073242 0.03662,0.036621 0.03662,0.095215 z m 7.910156,0 q 0,0.0585937 -0.0293,0.10253906 -0.0293,0.0366211 -0.09522,0.06591797 -0.06592,0.02929688 -0.183105,0.04394532 -0.117188,0.01464843 -0.292969,0.01464843 -0.183105,0 -0.300293,-0.01464843 -0.117187,-0.01464844 -0.183105,-0.04394532 -0.06592,-0.02929687 -0.09522,-0.06591797 -0.0293,-0.04394531 -0.0293,-0.10253906 V -4.0429687 q 0,-0.5639649 -0.08789,-0.9082032 -0.08789,-0.3442383 -0.256347,-0.5932617 -0.168457,-0.2490234 -0.439453,-0.3808594 -0.263672,-0.1318359 -0.615235,-0.1318359 -0.454101,0 -0.908203,0.3222656 -0.454101,0.3222656 -0.952148,0.9448242 v 4.60693363 q 0,0.0585937 -0.0293,0.10253906 -0.0293,0.0366211 -0.09521,0.06591797 -0.06592,0.02929688 -0.183106,0.04394532 -0.117187,0.01464843 -0.300293,0.01464843 -0.175781,0 -0.292968,-0.01464843 -0.117188,-0.01464844 -0.19043,-0.04394532 -0.06592,-0.02929687 -0.09521,-0.06591797 -0.02197,-0.04394531 -0.02197,-0.10253906 V -6.7749023 q 0,-0.058594 0.02197,-0.095215 0.02197,-0.043945 0.08789,-0.073242 0.06592,-0.036621 0.168457,-0.043945 0.102539,-0.014648 0.270996,-0.014648 0.161133,0 0.263672,0.014648 0.109863,0.00732 0.168457,0.043945 0.05859,0.029297 0.08057,0.073242 0.0293,0.036621 0.0293,0.095215 v 0.871582 q 0.556641,-0.6225586 1.105957,-0.9082031 0.556641,-0.2929688 1.120606,-0.2929688 0.659179,0 1.105957,0.2270508 0.454101,0.2197266 0.732422,0.5932617 0.27832,0.3735352 0.395507,0.8789063 0.124512,0.4980468 0.124512,1.2011718 z m 6.342777,-1.79443363 q 0,0.5053711 -0.19043,0.9008789 -0.18311,0.39550786 -0.52735,0.66650395 Q 105.05865,-0.13916016 104.58258,0 q -0.47607,0.13916016 -1.04736,0.13916016 -0.35157,0 -0.67383,-0.05859375 -0.31494,-0.05126953 -0.57129,-0.13183594 -0.24902,-0.08789063 -0.4248,-0.17578125 -0.17579,-0.0952149 -0.25635,-0.16845703 -0.0806,-0.0732422 -0.11719,-0.20507813 -0.0366,-0.13183593 -0.0366,-0.35888672 0,-0.13916014 0.0147,-0.23437504 0.0147,-0.095215 0.0366,-0.1538085 0.022,-0.058594 0.0586,-0.080566 0.0439,-0.029297 0.0952,-0.029297 0.0806,0 0.23437,0.102539 0.16114,0.095215 0.38819,0.2124024 0.23437,0.1171875 0.54931,0.21972654 0.31494,0.0952148 0.7251,0.0952148 0.30762,0 0.55664,-0.065918 0.24902,-0.065918 0.43213,-0.19042971 0.1831,-0.1318359 0.27832,-0.3295898 0.10254,-0.1977539 0.10254,-0.46875 0,-0.2783203 -0.14649,-0.46875 -0.13916,-0.1904297 -0.37353,-0.3369141 -0.23438,-0.1464844 -0.52734,-0.2563476 -0.29297,-0.1171875 -0.60791,-0.2416993 -0.30762,-0.1245117 -0.60791,-0.2783203 -0.29297,-0.1611328 -0.52735,-0.3881836 -0.23437,-0.2270507 -0.38086,-0.5419921 -0.13916,-0.3149415 -0.13916,-0.7543946 0,-0.3881836 0.14649,-0.7397461 0.1538,-0.3588867 0.4541,-0.6225586 0.30029,-0.2709961 0.74707,-0.4321289 0.4541,-0.1611328 1.05469,-0.1611328 0.26367,0 0.52734,0.043945 0.26367,0.043945 0.47607,0.1098633 0.21241,0.065918 0.35889,0.1464844 0.15381,0.073242 0.22705,0.1318359 0.0806,0.058594 0.10254,0.1025391 0.0293,0.043945 0.0366,0.102539 0.0147,0.05127 0.022,0.131836 0.0147,0.080566 0.0147,0.1977539 0,0.1245117 -0.0147,0.2197266 -0.007,0.087891 -0.0366,0.1464843 -0.022,0.058594 -0.0586,0.087891 -0.0366,0.021973 -0.0806,0.021973 -0.0659,0 -0.19043,-0.080566 -0.12451,-0.080566 -0.32226,-0.168457 -0.19776,-0.095215 -0.46875,-0.1757813 -0.26367,-0.080566 -0.60791,-0.080566 -0.30762,0 -0.54199,0.073242 -0.23438,0.065918 -0.38819,0.1977539 -0.14648,0.1245117 -0.22705,0.300293 -0.0732,0.1757812 -0.0732,0.3808594 0,0.2856445 0.14648,0.4833984 0.14649,0.1904297 0.38086,0.3369141 0.23438,0.1464843 0.53467,0.2636718 0.30029,0.1171875 0.60791,0.2416992 0.31494,0.1245118 0.61523,0.2783204 0.30762,0.1538085 0.542,0.3735351 0.23437,0.2197266 0.37353,0.5273438 0.14649,0.3076171 0.14649,0.7324218 z m 7.35351,-1.7871093 q 0,0.2856445 -0.14648,0.4101562 -0.13916,0.1171875 -0.32227,0.1171875 h -4.32129 q 0,0.5493164 0.10987,0.9887695 0.10986,0.4394532 0.36621,0.7543946 0.25634,0.3149414 0.6665,0.4833984 0.41016,0.16845704 1.00342,0.16845704 0.46875,0 0.83496,-0.0732422 0.36621,-0.0805664 0.62988,-0.17578126 0.271,-0.095215 0.43946,-0.168457 0.17578,-0.080566 0.26367,-0.080566 0.0513,0 0.0879,0.029297 0.0439,0.021973 0.0659,0.073242 0.022,0.05127 0.0293,0.1464844 0.0147,0.087891 0.0147,0.21972657 0,0.0952148 -0.007,0.16845703 -0.007,0.065918 -0.022,0.12451172 -0.007,0.0512695 -0.0366,0.0952148 -0.022,0.0439453 -0.0659,0.0878906 -0.0366,0.0366211 -0.23438,0.13183593 -0.19775,0.0878906 -0.51269,0.17578126 Q 112.00201,0 111.58453,0.06591797 q -0.41015,0.07324219 -0.8789,0.07324219 -0.81299,0 -1.42823,-0.22705078 -0.60791,-0.22705079 -1.02539,-0.67382813 -0.41748,-0.44677735 -0.62988,-1.12060545 -0.2124,-0.6738281 -0.2124,-1.5673828 0,-0.8496094 0.21973,-1.5234375 0.21972,-0.6811524 0.62988,-1.1499024 0.41748,-0.4760742 1.00342,-0.7250976 0.58593,-0.2563477 1.31103,-0.2563477 0.77637,0 1.31836,0.2490235 0.54932,0.2490234 0.90088,0.6738281 0.35156,0.4174804 0.5127,0.9887695 0.16845,0.5639649 0.16845,1.2084961 z m -1.21582,-0.3588868 q 0.022,-0.9521484 -0.4248,-1.4941406 -0.43946,-0.5419922 -1.31104,-0.5419922 -0.44678,0 -0.78369,0.1684571 -0.33691,0.168457 -0.56396,0.4467773 -0.22706,0.2783203 -0.35157,0.6518555 -0.12451,0.3662109 -0.13916,0.7690429 z m 4.2627,3.94042973 q 0,0.0585937 -0.0293,0.10253906 -0.0293,0.0366211 -0.0952,0.06591797 -0.0659,0.02929688 -0.18311,0.04394532 -0.11719,0.01464843 -0.30029,0.01464843 -0.17578,0 -0.29297,-0.01464843 -0.11719,-0.01464844 -0.19043,-0.04394532 -0.0659,-0.02929687 -0.0952,-0.06591797 -0.022,-0.04394531 -0.022,-0.10253906 V -9.9682617 q 0,-0.058593 0.022,-0.1025393 0.0293,-0.04395 0.0952,-0.07324 0.0732,-0.0293 0.19043,-0.04395 0.11719,-0.01465 0.29297,-0.01465 0.1831,0 0.30029,0.01465 0.11719,0.01465 0.18311,0.04395 0.0659,0.0293 0.0952,0.07324 0.0293,0.04395 0.0293,0.1025393 z m 3.44238,0 q 0,0.0585937 -0.0293,0.10253906 -0.0293,0.0366211 -0.0952,0.06591797 -0.0659,0.02929688 -0.18311,0.04394532 -0.11718,0.01464843 -0.30029,0.01464843 -0.17578,0 -0.29297,-0.01464843 -0.11719,-0.01464844 -0.19043,-0.04394532 -0.0659,-0.02929687 -0.0952,-0.06591797 -0.022,-0.04394531 -0.022,-0.10253906 V -9.9682617 q 0,-0.058593 0.022,-0.1025393 0.0293,-0.04395 0.0952,-0.07324 0.0732,-0.0293 0.19043,-0.04395 0.11719,-0.01465 0.29297,-0.01465 0.18311,0 0.30029,0.01465 0.11719,0.01465 0.18311,0.04395 0.0659,0.0293 0.0952,0.07324 0.0293,0.04395 0.0293,0.1025393 z m 3.44238,0 q 0,0.0585937 -0.0293,0.10253906 -0.0293,0.0366211 -0.0952,0.06591797 -0.0659,0.02929688 -0.1831,0.04394532 -0.11719,0.01464843 -0.3003,0.01464843 -0.17578,0 -0.29297,-0.01464843 -0.11718,-0.01464844 -0.19043,-0.04394532 -0.0659,-0.02929687 -0.0952,-0.06591797 -0.022,-0.04394531 -0.022,-0.10253906 V -6.7749023 q 0,-0.05127 0.022,-0.095215 0.0293,-0.043945 0.0952,-0.073242 0.0733,-0.029297 0.19043,-0.043945 0.11719,-0.014648 0.29297,-0.014648 0.18311,0 0.3003,0.014648 0.11718,0.014648 0.1831,0.043945 0.0659,0.029297 0.0952,0.073242 0.0293,0.043945 0.0293,0.095215 z m 0.13916,-8.81835933 q 0,0.4248046 -0.16113,0.5786132 -0.16113,0.1538086 -0.59326,0.1538086 -0.42481,0 -0.58594,-0.1464843 -0.15381,-0.1538086 -0.15381,-0.5712891 0,-0.4248047 0.16114,-0.5786133 0.16113,-0.1538086 0.59326,-0.1538086 0.4248,0 0.57861,0.1538086 0.16113,0.1464844 0.16113,0.5639649 z m 7.771,8.81835933 q 0,0.0585937 -0.0293,0.10253906 -0.0293,0.0366211 -0.0952,0.06591797 -0.0659,0.02929688 -0.18311,0.04394532 -0.11719,0.01464843 -0.29297,0.01464843 -0.1831,0 -0.30029,-0.01464843 -0.11719,-0.01464844 -0.18311,-0.04394532 -0.0659,-0.02929687 -0.0952,-0.06591797 -0.0293,-0.04394531 -0.0293,-0.10253906 V -4.0429687 q 0,-0.5639649 -0.0879,-0.9082032 -0.0879,-0.3442383 -0.25635,-0.5932617 -0.16845,-0.2490234 -0.43945,-0.3808594 -0.26367,-0.1318359 -0.61523,-0.1318359 -0.4541,0 -0.90821,0.3222656 -0.4541,0.3222656 -0.95214,0.9448242 v 4.60693363 q 0,0.0585937 -0.0293,0.10253906 -0.0293,0.0366211 -0.0952,0.06591797 -0.0659,0.02929688 -0.1831,0.04394532 -0.11719,0.01464843 -0.30029,0.01464843 -0.17579,0 -0.29297,-0.01464843 -0.11719,-0.01464844 -0.19043,-0.04394532 -0.0659,-0.02929687 -0.0952,-0.06591797 -0.022,-0.04394531 -0.022,-0.10253906 V -6.7749023 q 0,-0.058594 0.022,-0.095215 0.022,-0.043945 0.0879,-0.073242 0.0659,-0.036621 0.16846,-0.043945 0.10254,-0.014648 0.271,-0.014648 0.16113,0 0.26367,0.014648 0.10986,0.00732 0.16845,0.043945 0.0586,0.029297 0.0806,0.073242 0.0293,0.036621 0.0293,0.095215 v 0.871582 q 0.55664,-0.6225586 1.10596,-0.9082031 0.55664,-0.2929688 1.1206,-0.2929688 0.65918,0 1.10596,0.2270508 0.4541,0.2197266 0.73242,0.5932617 0.27832,0.3735352 0.39551,0.8789063 0.12451,0.4980468 0.12451,1.2011718 z m 7.7124,-6.29150393 q 0,0.2563477 -0.0732,0.3735352 -0.0659,0.1098633 -0.17578,0.1098633 h -0.94483 q 0.25635,0.2636718 0.35889,0.5859375 0.10254,0.3149414 0.10254,0.6591797 0,0.571289 -0.18311,1.0107421 -0.1831,0.4394532 -0.52734,0.7470703 -0.33691,0.300293 -0.80566,0.4614258 -0.46875,0.1611328 -1.04004,0.1611328 -0.40283,0 -0.76905,-0.102539 -0.35888,-0.1098633 -0.55664,-0.2709961 -0.13183,0.1318359 -0.21972,0.300293 -0.0806,0.168457 -0.0806,0.3881835 0,0.2563477 0.23438,0.4248047 0.24169,0.1684571 0.6372,0.1831055 l 1.72119,0.073242 q 0.49073,0.014648 0.90088,0.1391602 0.41016,0.1171875 0.71045,0.34423823 0.3003,0.21972656 0.46875,0.54931641 0.16846,0.32226562 0.16846,0.75439453 0,0.45410156 -0.19043,0.86425783 -0.19043,0.4101562 -0.58594,0.7177734 -0.38818,0.3149414 -0.99609,0.4907227 -0.60791,0.1831054 -1.43555,0.1831054 -0.79834,0 -1.3623,-0.1391601 -0.55664,-0.1318359 -0.91553,-0.3662109 -0.35889,-0.2343751 -0.52002,-0.5639649 -0.16113,-0.3222656 -0.16113,-0.70312499 0,-0.24169922 0.0586,-0.46875 Q 132.90533,0.20507813 133.02252,0 q 0.12451,-0.20507813 0.30029,-0.38818359 0.18311,-0.19042969 0.41749,-0.37353516 -0.35889,-0.18310547 -0.53467,-0.46142575 -0.16846,-0.2783203 -0.16846,-0.600586 0,-0.4467773 0.18311,-0.7983398 0.1831,-0.3515625 0.4541,-0.6298828 -0.22705,-0.2709961 -0.35889,-0.6079102 -0.13184,-0.3442383 -0.13184,-0.8276367 0,-0.5639648 0.19043,-1.0107422 0.19043,-0.4467773 0.52735,-0.7543945 0.33691,-0.3076172 0.80566,-0.46875 0.47608,-0.168457 1.03272,-0.168457 0.30029,0 0.55664,0.036621 0.26367,0.029297 0.49072,0.087891 h 1.99219 q 0.12451,0 0.1831,0.1245117 0.0659,0.1171875 0.0659,0.3662109 z m -1.88965,1.7358399 q 0,-0.6738282 -0.37353,-1.0473633 -0.36621,-0.3808594 -1.04737,-0.3808594 -0.35156,0 -0.61523,0.1171875 -0.25635,0.1171875 -0.43213,0.3222656 -0.16846,0.2050782 -0.25635,0.4760743 -0.0806,0.2636718 -0.0806,0.5566406 0,0.6518555 0.36621,1.0253906 0.37353,0.3735352 1.04004,0.3735352 0.35888,0 0.62256,-0.1098633 0.26367,-0.1171875 0.43212,-0.3149414 0.17579,-0.2050782 0.25635,-0.46875 0.0879,-0.2636719 0.0879,-0.5493164 z m 0.60791,5.22216794 q 0,-0.42480469 -0.35156,-0.65185547 -0.34424,-0.234375 -0.9375,-0.24902344 l -1.70654,-0.0585938 q -0.23438,0.18310547 -0.38819,0.3515625 -0.14648,0.16113281 -0.23437,0.30761719 -0.0879,0.15380859 -0.12451,0.30029297 -0.0293,0.14648437 -0.0293,0.30029297 0,0.47607419 0.4834,0.71777339 0.4834,0.2490235 1.34766,0.2490235 0.54931,0 0.91552,-0.1098633 0.37354,-0.1025391 0.60059,-0.2783203 0.22705,-0.1757813 0.32226,-0.40283204 0.10254,-0.22705079 0.10254,-0.47607422 z"
       id="path19" />
  </g>
</svg>
